<svg version="1.0" xmlns="http://www.w3.org/2000/svg"
 width="42.000000pt" height="34.000000pt" viewBox="0 0 42.000000 34.000000"
 preserveAspectRatio="xMidYMid meet">
<g transform="translate(0.000000,34.000000) scale(0.100000,-0.100000)"
fill="#1a1a1a" stroke="none">
<path d="M145 328 c-38 -3 -81 -11 -95 -17 l-25 -12 25 6 c45 11 216 18 272
11 84 -11 83 -10 42 -119 -34 -91 -38 -97 -65 -97 -24 0 -31 -7 -49 -47 -11
-25 -18 -48 -16 -51 5 -5 36 64 36 80 0 6 13 8 30 6 29 -4 30 -3 70 98 22 56
40 107 40 112 0 23 -155 41 -265 30z"/>
<path d="M243 303 c15 -2 37 -2 50 0 12 2 0 4 -28 4 -27 0 -38 -2 -22 -4z"/>
<path d="M12 213 l-2 -71 50 -11 c28 -6 56 -11 63 -11 7 0 28 -5 48 -10 29 -8
37 -17 47 -47 l11 -38 -6 35 c-7 46 -17 55 -83 68 -30 6 -69 14 -87 17 -32 6
-32 7 -36 73 l-3 67 -2 -72z"/>
</g>
</svg>
